<?xml version="1.0" encoding="UTF-8"?>
<svg width="48px" height="48px" viewBox="0 0 48 48" version="1.1" xmlns="http://www.w3.org/2000/svg" xmlns:xlink="http://www.w3.org/1999/xlink">
    <!-- Generator: Sketch 48.2 (47327) - http://www.bohemiancoding.com/sketch -->
    <title>Oval</title>
    <desc>Created with Sketch.</desc>
    <defs></defs>
    <g id="Desktop" stroke="none" stroke-width="1" fill="none" fill-rule="evenodd">
        <path d="M24,48 C10.745166,48 0,37.254834 0,24 C0,10.745166 10.745166,0 24,0 C37.254834,0 48,10.745166 48,24 C48,37.254834 37.254834,48 24,48 Z M16.9023375,20.1315549 L11.3295337,20.1315549 L11.3295337,36.9995522 L16.9023375,36.9995522 L16.9023375,20.1315549 Z M17.2693765,14.9136029 C17.2332068,13.2597064 16.0591942,12 14.1527731,12 C12.246352,12 11,13.2597064 11,14.9136029 C11,16.5332414 12.2095146,17.8292209 14.0804337,17.8292209 L14.1160469,17.8292209 C16.0591942,17.8292209 17.2693765,16.5332414 17.2693765,14.9136029 Z M37,27.327958 C37,22.1468389 34.2507694,19.7354617 30.5836076,19.7354617 C27.6248154,19.7354617 26.3001143,21.372677 25.5604719,22.521213 L25.5604719,20.1320027 L19.9870003,20.1320027 C20.0604526,21.7148084 19.9870003,37 19.9870003,37 L25.5604719,37 L25.5604719,27.5795187 C25.5604719,27.0753898 25.5966416,26.5724925 25.7439913,26.2115528 C26.1467548,25.2044146 27.0637956,24.161675 28.6034004,24.161675 C30.620779,24.161675 31.4271962,25.7084315 31.4271962,27.9751641 L31.4271962,36.9995522 L36.9997774,36.9995522 L37,27.327958 Z" id="Oval" fill="#90c040"></path>
    </g>
</svg>