<?xml version="1.0" encoding="UTF-8"?>
<svg width="48px" height="48px" viewBox="0 0 48 48" version="1.1" xmlns="http://www.w3.org/2000/svg" xmlns:xlink="http://www.w3.org/1999/xlink">
    <!-- Generator: Sketch 48.2 (47327) - http://www.bohemiancoding.com/sketch -->
    <title>Oval</title>
    <desc>Created with Sketch.</desc>
    <defs></defs>
    <g id="Desktop" stroke="none" stroke-width="1" fill="none" fill-rule="evenodd">
        <path d="M24,48 C37.254834,48 48,37.254834 48,24 C48,10.745166 37.254834,0 24,0 C10.745166,0 0,10.745166 0,24 C0,37.254834 10.745166,48 24,48 Z M21.0346715,15 L29.0437956,15 C36.6715328,15 40,20.5505051 40,25.5 C40,30.9090909 35.8740876,36 29.0437956,36 L21,36 L21,15 L21.0346715,15 Z M24.0164234,33.3131313 L24.0164234,17.6868687 L28.5930657,17.6868687 C34.3485401,17.6868687 36.9835766,21.2929293 36.9835766,25.5 C36.9835766,28.1161616 35.4233577,33.3131313 28.7317518,33.3131313 L24.0164234,33.3131313 Z M17,36 L14,36 L14,15 L17,15 L17,26.7020202 L17,36 Z M17,11 C17,12.1071429 16.1071429,13 15,13 C13.8928571,13 13,12.1071429 13,11 C13,9.89285714 13.8928571,9 15,9 C16.0714286,9 17,9.89285714 17,11 Z" id="Oval" fill="#90c040"></path>
    </g>
</svg>