<?xml version="1.0" encoding="UTF-8"?>
<svg width="48px" height="48px" viewBox="0 0 48 48" version="1.1" xmlns="http://www.w3.org/2000/svg" xmlns:xlink="http://www.w3.org/1999/xlink">
    <!-- Generator: Sketch 48.2 (47327) - http://www.bohemiancoding.com/sketch -->
    <title>Oval</title>
    <desc>Created with Sketch.</desc>
    <defs></defs>
    <g id="Desktop" stroke="none" stroke-width="1" fill="none" fill-rule="evenodd">
        <path d="M24,48 C10.745166,48 0,37.254834 0,24 C0,10.745166 10.745166,0 24,0 C37.254834,0 48,10.745166 48,24 C48,37.254834 37.254834,48 24,48 Z M36.0480983,19.7908888 C36.2746673,19.687833 36.531464,19.6555083 36.7452175,19.5224414 C37.2078278,19.3199655 37.5992566,19.0301666 37.9231952,18.6575397 C38.1101338,18.4301427 38.2827942,18.1938878 38.4204211,17.9358848 C38.5553317,17.716222 38.6461543,17.4787111 38.7205397,17.2364408 C39.0671144,16.1076528 38.9927986,14.9477961 38.9942613,13.7939548 C38.9945398,13.5781921 38.8451422,13.5166495 38.6459454,13.5167156 C37.4745148,13.5170461 36.3030145,13.5190292 35.1315839,13.5148647 C34.8458827,13.5138731 34.7368816,13.6446925 34.7454485,13.9031582 C34.7535278,14.145098 34.7546422,14.387765 34.7452395,14.6295725 C34.7343046,14.9089271 34.8589767,15.0287071 35.159165,15.0225595 C35.7156624,15.0111235 36.2725778,15.0227578 36.8292842,15.0182627 C37.0325903,15.0166762 37.1660383,15.0663863 37.1678492,15.2906102 C37.1728639,15.8887833 37.1108761,16.4776356 36.8902273,17.0416991 C36.3680669,18.3768631 34.5817728,18.6901949 33.3814377,18.1837078 C32.352788,17.7496044 32.018611,16.900237 31.9536282,15.9386916 C31.8660095,14.6425289 31.8806358,13.3414745 31.9509815,12.0439897 C31.9814879,11.4804551 32.1443975,10.9387347 32.492992,10.4639774 C32.5613875,10.374539 32.6350764,10.2890007 32.7078599,10.2028014 C33.745355,9.34292354 34.8139137,9.21369067 35.9703697,9.80816188 C36.1737455,9.94413733 36.4051203,10.0495067 36.5313247,10.2699628 C36.6585739,10.4536652 36.8001011,10.6300962 36.9091719,10.8231192 C37.0284114,11.0341885 37.1810129,11.0641996 37.3972041,10.973968 C37.7150833,10.8412316 38.0340768,10.7094207 38.3590602,10.5938052 C38.6127923,10.5035735 38.6348712,10.3511382 38.5246164,10.1527608 C38.3567617,9.8507327 38.169266,9.56040495 37.924031,9.30729361 C36.6942343,8.03783681 35.1336734,7.84765627 33.4519227,8.09184359 C32.8624812,8.17738187 32.3192867,8.40081261 31.8303491,8.73397561 C30.8879251,9.37623984 30.3646504,10.2884719 30.2169243,11.3368116 C29.9473818,13.2505818 29.8714641,15.1810763 30.3278059,17.0829479 C30.5731106,18.1051766 31.1673579,18.9397367 32.1672424,19.45528 C33.4069293,20.0945034 34.7118775,20.1222009 36.0480983,19.7908888 Z M19.7181553,26.5645327 C18.5988157,26.6747382 17.4686737,26.6380267 16.3439696,26.540412 C16.0777297,26.5172816 15.9920449,26.4056614 15.9924858,26.1575929 C15.9979238,23.2463426 15.9955722,20.3350216 15.9980708,17.4237006 C15.9980708,17.3443357 16.0293023,17.2649708 16.0459837,17.1856058 C17.1759787,17.0625265 18.3092807,17.0611118 19.4437584,17.0972575 C20.1169641,17.1186903 20.7805432,17.1925379 21.4171529,17.4187492 C21.6306299,17.4268837 21.8072169,17.5364526 21.9950472,17.6153931 L21.9932836,17.6146858 C22.1117431,17.6931312 22.2548939,17.7314697 22.3632858,17.8262549 C23.6634746,18.6772706 24.2231444,19.8941289 24.2849462,21.3725661 C24.3456457,22.8241947 23.9919573,24.1278452 22.9005424,25.1863273 C22.0237068,26.0367064 20.9202402,26.4461927 19.7181553,26.5645327 M31.7511293,38.0669315 C31.7387102,37.8540892 31.6612559,37.7415494 31.4295543,37.7259169 C30.6470014,37.6731485 29.9786457,37.3391367 29.3451959,36.9239915 C28.9763694,36.6680007 28.6578808,36.3551387 28.3113941,36.0740369 C28.161409,35.9373764 27.9998867,35.8107603 27.8634231,35.6626407 C26.8208029,34.5308769 25.8380005,33.3530644 24.9335341,32.1154099 C24.8142662,31.9472015 24.6966151,31.7779321 24.5719092,31.6134019 C24.4382381,31.4316831 24.3022889,31.2514497 24.1714102,31.067821 C23.5104032,30.1401991 22.9016447,29.1811 22.3165487,28.2077831 C22.1971339,28.0091585 22.1229864,27.8512775 22.4596261,27.775803 C22.7056574,27.7207002 22.9371384,27.6049774 23.1750863,27.5162754 C23.5332573,27.379049 23.8681333,27.1971887 24.2044789,27.0181578 C26.3443929,25.5939038 27.6296639,23.7160246 27.5228887,21.1273271 C27.4302228,18.8804222 26.3327821,17.2416989 24.2218217,16.2566399 C22.7673857,15.578006 21.2057335,15.3805132 19.6146869,15.4049876 C16.6525376,15.4506119 13.6911965,15.5482972 10.7279449,15.5009046 C9.93723493,15.488243 10.0154976,15.4123441 10.0026375,16.2028104 C9.99888973,16.4291632 10.0621612,16.5539401 10.3169374,16.5795463 C10.5711991,16.6050817 10.8203903,16.6739071 11.0737702,16.7111138 C12.331925,16.8956621 12.7349225,17.2732468 12.9628028,18.4712188 C13.0227674,18.7860614 13.0507656,19.1016113 13.0508391,19.4202028 C13.0514269,24.5349265 13.0504716,29.6496502 13.0528967,34.7644447 C13.0531171,35.203569 12.9910214,35.6336393 12.8949751,36.0605265 C12.7303664,36.7912215 12.2765165,37.2468272 11.5062357,37.3899246 C11.1462275,37.4568401 10.7848966,37.5190871 10.4219489,37.5682481 C10.134692,37.6071525 9.96905439,37.7246437 10.0043277,38.0289467 C10.0165264,38.1337056 10.0147627,38.2415768 10.0049156,38.3467601 C9.97838712,38.6294182 10.1127196,38.7212325 10.3961553,38.7034072 C10.9822801,38.6666249 11.5695072,38.6355014 12.1566607,38.6265888 C14.3968831,38.5927066 16.6369585,38.5750935 18.8761521,38.6860771 C19.6469473,38.7243449 19.5653778,38.8105711 19.5874236,38.0265417 C19.5954336,37.7393566 19.4781499,37.6218654 19.1984619,37.5916615 C18.6881013,37.5366294 18.1800922,37.4615086 17.6695846,37.4081743 C16.8921021,37.3269702 16.3992311,36.9645228 16.2026559,36.2728737 C16.1094756,35.9451573 16.023056,35.6124187 16.0220272,35.2656038 C16.0155604,33.0265506 16.0072565,30.787568 15.9934411,28.5486562 C15.9919714,28.3099955 16.0680295,28.2132297 16.3333876,28.222779 C17.1039624,28.2505779 17.875419,28.26232 18.6465082,28.2649372 C18.8829863,28.265786 19.0343676,28.3414727 19.1468012,28.543634 C19.3776209,28.9586377 19.6265917,29.3643043 19.8680669,29.7738613 C20.0109972,30.0737787 20.2234454,30.3345088 20.3846003,30.6241696 L21.8540275,32.8835946 C22.130629,33.3204555 22.4200171,33.749111 22.7383587,34.1591632 C23.1293045,34.6772989 23.5201768,35.1954345 23.9111226,35.7135701 C24.1562721,36.0639218 24.4341229,36.3893039 24.7264504,36.7036513 C25.113428,37.096727 25.4879129,37.5034546 25.9553577,37.812992 C27.4873949,38.8274061 29.1722832,39.1857508 31.0091406,38.91052 C31.7176932,38.8043464 31.78993,38.7286597 31.7511293,38.0669315" id="Oval" fill="#90c040"></path>
    </g>
</svg>