<svg class="t455__svg" xmlns="http://www.w3.org/2000/svg" width="25" height="25" viewBox="0 0 48 48"><desc>Twitter</desc><path d="M47.762 24c0 13.12-10.64 23.76-23.76 23.76S.24 37.12.24 24C.24 10.876 10.88.24 24 .24S47.763 10.876 47.763 24m-9.73-11.625c-1.178.7-2.482 1.208-3.87 1.48-1.11-1.185-2.695-1.925-4.456-1.925-3.364 0-6.093 2.73-6.093 6.095 0 .478.054.94.156 1.388-5.064-.255-9.555-2.68-12.56-6.367-.524.898-.825 1.947-.825 3.064 0 2.113 1.076 3.978 2.71 5.07-.997-.03-1.938-.306-2.76-.762v.077c0 2.95 2.1 5.414 4.89 5.975-.513.14-1.05.215-1.607.215-.393 0-.775-.04-1.146-.11.777 2.42 3.026 4.183 5.692 4.233-2.086 1.634-4.712 2.607-7.567 2.607-.492 0-.977-.027-1.453-.084 2.696 1.73 5.9 2.737 9.34 2.737 11.21 0 17.337-9.283 17.337-17.337 0-.263-.003-.527-.016-.79 1.19-.857 2.224-1.93 3.04-3.15-1.092.484-2.267.81-3.5.957 1.265-.753 2.232-1.947 2.687-3.372" fill="#90c040"/></svg>